<?xml version="1.0" encoding="UTF-8" standalone="no"?>
<!-- Generator: Adobe Illustrator 19.0.0, SVG Export Plug-In . SVG Version: 6.00 Build 0)  -->

<svg
   xmlns:dc="http://purl.org/dc/elements/1.1/"
   xmlns:cc="http://creativecommons.org/ns#"
   xmlns:rdf="http://www.w3.org/1999/02/22-rdf-syntax-ns#"
   xmlns:svg="http://www.w3.org/2000/svg"
   xmlns="http://www.w3.org/2000/svg"
   xmlns:sodipodi="http://sodipodi.sourceforge.net/DTD/sodipodi-0.dtd"
   xmlns:inkscape="http://www.inkscape.org/namespaces/inkscape"
   version="1.1"
   id="Layer_1"
   x="0px"
   y="0px"
   viewBox="0 0 512 512"
   style="enable-background:new 0 0 512 512;"
   xml:space="preserve"
   inkscape:version="0.48.1 "
   width="100%"
   height="100%"
   sodipodi:docname="421368.svg"><metadata
   id="metadata59"><rdf:RDF><cc:Work
       rdf:about=""><dc:format>image/svg+xml</dc:format><dc:type
         rdf:resource="http://purl.org/dc/dcmitype/StillImage" /></cc:Work></rdf:RDF></metadata><defs
   id="defs57" /><sodipodi:namedview
   pagecolor="#ffffff"
   bordercolor="#666666"
   borderopacity="1"
   objecttolerance="10"
   gridtolerance="10"
   guidetolerance="10"
   inkscape:pageopacity="0"
   inkscape:pageshadow="2"
   inkscape:window-width="640"
   inkscape:window-height="480"
   id="namedview55"
   showgrid="false"
   inkscape:zoom="0.60351562"
   inkscape:cx="256"
   inkscape:cy="256"
   inkscape:window-x="0"
   inkscape:window-y="0"
   inkscape:window-maximized="0"
   inkscape:current-layer="Layer_1" />
<circle
   style="fill:#3E474C;"
   cx="256"
   cy="251.757"
   r="251.757"
   id="circle3" />
<circle
   style="fill:#46565E;"
   cx="256"
   cy="251.757"
   r="203.669"
   id="circle5" />
<path
   style="fill:#6A9093;"
   d="M256,398.851c-81.108,0-147.094-65.985-147.094-147.094S174.892,104.663,256,104.663  s147.094,65.985,147.094,147.094S337.108,398.851,256,398.851z"
   id="path7" />
<path
   style="fill:#C1BDAB;"
   d="M294.367,341.135c21.051-4.788,36.526-24.239,35.088-47.051  c-1.41-22.366-19.403-40.559-41.753-42.201c-10.634-0.782-20.554,2.123-28.63,7.557c-1.848,1.242-4.294,1.242-6.142,0  c-8.077-5.433-17.996-8.338-28.63-7.557c-22.35,1.642-40.343,19.836-41.753,42.201c-1.438,22.812,14.036,42.263,35.088,47.051  c2.581,0.587,4.422,2.865,4.422,5.513v153.008c0,5.858,4.468,10.75,10.301,11.278C240.143,511.637,248.029,512,256,512  c7.971,0,15.856-0.362,23.644-1.067c5.834-0.527,10.301-5.421,10.301-11.278V346.647  C289.945,344.001,291.786,341.722,294.367,341.135z"
   id="path9" />
<g
   id="g11"
   transform="translate(28.168285,-43.080906)">
	<path
   style="fill:#e7e4cd"
   d="m 287.702,251.882 c -10.634,-0.782 -20.554,2.123 -28.631,7.556 -1.848,1.242 -4.294,1.242 -6.142,0 -8.077,-5.433 -17.996,-8.338 -28.631,-7.556 -18.963,1.394 -34.783,14.704 -40.006,32.366 16.545,21.477 42.502,35.327 71.708,35.327 29.206,0 55.164,-13.851 71.708,-35.327 -5.223,-17.661 -21.043,-30.972 -40.006,-32.366 z"
   id="path13"
   inkscape:connector-curvature="0" />
	<path
   style="fill:#e7e4cd"
   d="m 219.951,342.276 c 1.291,1.046 2.105,2.622 2.105,4.371 v 153.008 c 0,5.858 4.468,10.75 10.301,11.278 C 240.143,511.637 248.029,512 256,512 V 378.326 c 0,-19.91 -16.14,-36.05 -36.049,-36.05 l 0,0 z"
   id="path15"
   inkscape:connector-curvature="0" />
	<path
   style="fill:#e7e4cd"
   d="m 291.031,173.47 c -18.157,-11.428 -42.659,-8.723 -57.797,8.14 -15.077,16.796 -15.348,42.596 -0.602,59.683 6.967,8.072 16.034,13.034 25.589,14.903 2.185,0.428 3.915,2.158 4.343,4.343 1.869,9.554 6.83,18.622 14.902,25.589 16.966,14.643 42.555,14.5 59.366,-0.319 17.146,-15.113 19.956,-39.808 8.457,-58.078 -1.41,-2.24 -1.101,-5.153 0.772,-7.025 L 460.197,106.57 c 4.05,-4.05 4.431,-10.484 0.903,-14.997 C 451.362,79.122 440.518,67.58 428.711,57.096 424.234,53.12 417.427,53.329 413.193,57.563 L 298.055,172.7 c -1.871,1.871 -4.784,2.18 -7.024,0.77 z"
   id="path17"
   inkscape:connector-curvature="0" />
</g>
<g
   id="g19">
	<path
   style="fill:#C1BDAB;"
   d="M348.459,251.863c-16.812,14.819-42.4,14.961-59.366,0.318   c-8.072-6.967-13.033-16.034-14.902-25.589c-0.428-2.185-2.158-3.915-4.343-4.343c-9.554-1.869-18.622-6.83-25.589-14.902   c-6.466-7.492-10.044-16.666-10.753-26.022c-0.184,0.201-0.373,0.396-0.554,0.601c-14.819,16.812-14.961,42.4-0.319,59.366   c6.967,8.072,16.034,13.033,25.589,14.902c2.185,0.428,3.915,2.158,4.343,4.343c1.869,9.554,6.83,18.622,14.902,25.589   c16.966,14.643,42.554,14.5,59.366-0.318c11.228-9.897,16.307-23.903,15.248-37.523C350.95,249.527,349.75,250.725,348.459,251.863   z"
   id="path21" />
	<path
   style="fill:#C1BDAB;"
   d="M344.678,226.347c-0.599-1.961-0.123-4.137,1.383-5.643l114.132-114.132   c4.06-4.06,4.421-10.506,0.879-15.025c-5.342-6.816-11.02-13.356-16.997-19.608L320.633,195.381   c-4.347,4.347-2.703,11.623,3.01,13.891C332.277,212.701,339.606,218.708,344.678,226.347z"
   id="path23" />
</g>
<g
   id="g25">
</g>
<g
   id="g27">
</g>
<g
   id="g29">
</g>
<g
   id="g31">
</g>
<g
   id="g33">
</g>
<g
   id="g35">
</g>
<g
   id="g37">
</g>
<g
   id="g39">
</g>
<g
   id="g41">
</g>
<g
   id="g43">
</g>
<g
   id="g45">
</g>
<g
   id="g47">
</g>
<g
   id="g49">
</g>
<g
   id="g51">
</g>
<g
   id="g53">
</g>
</svg>